<svg id="svg" version="1.1" xmlns="http://www.w3.org/2000/svg" xmlns:xlink="http://www.w3.org/1999/xlink" width="400" height="168.59375" viewBox="0, 0, 400,168.59375"><g id="svgg"><path id="path0" d="M71.917 4.112 C 68.337 4.559,66.877 5.286,54.250 12.909 C 53.608 13.297,51.958 14.276,50.583 15.086 C 49.208 15.896,47.371 16.985,46.500 17.507 C 45.629 18.028,42.854 19.677,40.333 21.169 C 37.813 22.662,33.012 25.510,29.667 27.498 C 26.321 29.487,21.708 32.223,19.417 33.580 C 10.475 38.873,10.466 38.879,8.700 40.737 C 5.904 43.682,4.346 47.233,4.004 51.445 C 3.781 54.190,3.776 114.328,3.998 117.000 C 4.345 121.169,5.880 124.718,8.613 127.670 C 10.192 129.376,11.227 130.070,19.167 134.747 C 20.129 135.314,25.754 138.651,31.667 142.163 C 37.579 145.675,43.204 149.013,44.167 149.581 C 45.129 150.149,49.929 153.001,54.833 155.919 C 65.790 162.437,66.557 162.868,68.330 163.511 C 70.314 164.230,72.905 164.584,74.784 164.392 L 76.250 164.243 75.526 163.860 C 73.862 162.980,72.565 161.028,72.071 158.662 C 71.662 156.698,71.805 91.653,72.222 90.250 C 73.598 85.618,76.277 82.741,83.167 78.492 C 87.854 75.602,93.085 72.372,100.167 67.997 C 108.194 63.037,110.238 61.775,114.333 59.250 C 116.304 58.035,119.829 55.859,122.167 54.416 C 124.504 52.972,127.354 51.212,128.500 50.504 C 129.646 49.797,130.996 48.954,131.500 48.631 C 136.141 45.662,139.658 45.537,142.140 48.253 C 142.613 48.770,143.000 49.275,143.000 49.375 C 143.000 49.474,143.038 49.517,143.085 49.470 C 143.466 49.090,141.439 44.307,140.107 42.443 C 138.221 39.802,137.059 38.950,128.250 33.749 C 125.958 32.396,123.371 30.862,122.500 30.340 C 121.629 29.818,120.279 29.012,119.500 28.549 C 118.721 28.087,114.258 25.436,109.583 22.660 C 104.908 19.883,100.183 17.089,99.083 16.450 C 97.983 15.811,96.896 15.159,96.667 15.000 C 96.438 14.842,95.725 14.413,95.083 14.047 C 94.442 13.681,91.329 11.846,88.167 9.968 C 81.121 5.784,80.565 5.478,79.005 4.924 C 76.993 4.208,73.946 3.859,71.917 4.112 M93.750 93.501 C 91.624 94.820,91.667 94.733,91.667 97.722 L 91.667 100.258 90.410 101.504 C 87.280 104.608,85.723 108.029,85.547 112.191 C 85.331 117.267,86.984 118.981,92.417 119.316 C 96.414 119.563,97.358 120.356,97.124 123.268 C 96.790 127.433,91.106 131.249,87.466 129.753 C 86.853 129.502,86.419 130.297,85.848 132.713 C 85.181 135.540,85.193 135.669,86.167 135.963 C 87.275 136.297,88.696 136.141,91.292 135.401 C 91.666 135.295,91.667 135.296,91.667 137.386 C 91.667 140.668,91.713 140.714,93.825 139.505 C 96.008 138.256,95.927 138.417,95.862 135.470 L 95.808 132.977 97.199 131.530 C 100.723 127.866,102.589 123.207,102.277 118.848 C 101.954 114.330,100.266 112.851,95.026 112.497 C 91.578 112.263,90.799 111.847,90.561 110.109 C 90.083 106.620,94.446 102.754,98.271 103.279 C 99.802 103.489,99.928 103.332,100.676 100.267 C 101.291 97.748,101.294 97.542,100.708 97.312 C 100.113 97.079,97.806 97.236,96.854 97.574 C 95.616 98.014,95.667 98.105,95.667 95.450 C 95.667 92.271,95.692 92.297,93.750 93.501 " stroke="none" fill="#fbfbfb" fill-rule="evenodd"></path><path id="path1" d="M71.928 0.352 C 72.010 0.484,70.012 0.694,69.816 0.573 C 69.734 0.522,69.667 0.548,69.667 0.630 C 69.667 0.774,67.891 1.265,67.620 1.196 C 67.548 1.178,67.260 1.282,66.980 1.427 C 66.699 1.572,66.360 1.649,66.226 1.597 C 66.092 1.546,66.020 1.565,66.066 1.639 C 66.113 1.714,65.798 1.945,65.367 2.153 C 64.936 2.362,63.738 3.016,62.706 3.608 C 61.673 4.199,60.753 4.636,60.660 4.579 C 60.567 4.522,60.512 4.552,60.538 4.645 C 60.602 4.884,58.161 6.367,57.880 6.259 C 57.753 6.210,57.695 6.245,57.751 6.335 C 57.849 6.493,57.602 6.577,57.250 6.506 C 57.158 6.487,57.140 6.529,57.209 6.598 C 57.380 6.769,55.973 7.688,55.700 7.585 C 55.580 7.541,55.526 7.573,55.578 7.658 C 55.631 7.743,55.166 8.093,54.545 8.436 C 53.925 8.778,52.667 9.518,51.750 10.078 C 48.841 11.858,45.510 13.833,45.418 13.833 C 45.370 13.833,44.562 14.309,43.623 14.890 C 39.587 17.388,36.750 19.004,36.541 18.923 C 36.417 18.876,36.358 18.906,36.410 18.989 C 36.540 19.199,33.178 21.207,32.885 21.094 C 32.755 21.044,32.695 21.078,32.751 21.169 C 32.845 21.320,32.615 21.407,32.279 21.349 C 32.204 21.336,32.182 21.390,32.231 21.468 C 32.279 21.547,31.516 22.087,30.535 22.668 C 29.553 23.248,27.925 24.221,26.917 24.828 C 22.789 27.316,20.502 28.667,20.418 28.667 C 20.370 28.667,19.562 29.142,18.623 29.724 C 17.685 30.305,15.169 31.822,13.032 33.095 C 7.442 36.424,5.480 38.155,3.492 41.514 C 3.011 42.325,2.555 42.951,2.478 42.903 C 2.400 42.855,2.387 42.945,2.447 43.102 C 2.527 43.311,2.498 43.351,2.336 43.252 C 2.196 43.165,2.155 43.180,2.224 43.291 C 2.332 43.466,1.610 45.221,1.483 45.094 C 1.423 45.034,1.368 45.425,1.328 46.208 C 1.319 46.369,1.245 46.500,1.162 46.500 C 1.078 46.500,1.054 46.613,1.106 46.750 C 1.159 46.888,1.115 47.000,1.008 47.000 C 0.901 47.000,0.854 47.065,0.903 47.144 C 1.010 47.317,0.640 49.167,0.499 49.167 C 0.445 49.167,0.431 49.429,0.468 49.750 C 0.506 50.071,0.472 50.333,0.393 50.333 C 0.314 50.333,0.250 65.449,0.250 84.250 C 0.250 102.904,0.306 118.167,0.375 118.167 C 0.444 118.167,0.500 118.396,0.500 118.677 C 0.500 119.030,0.436 119.154,0.292 119.081 C 0.177 119.023,0.197 119.075,0.336 119.196 C 0.575 119.405,1.611 123.170,1.558 123.636 C 1.545 123.757,1.569 123.820,1.612 123.777 C 1.655 123.734,2.032 124.347,2.450 125.141 C 4.259 128.580,6.857 131.547,9.620 133.331 C 10.373 133.817,10.943 134.291,10.886 134.383 C 10.827 134.478,10.865 134.500,10.970 134.435 C 11.207 134.289,12.173 134.833,19.250 139.100 C 20.258 139.708,22.583 141.095,24.417 142.181 C 26.250 143.268,27.729 144.240,27.704 144.341 C 27.679 144.442,27.732 144.479,27.822 144.424 C 28.066 144.273,31.026 145.989,30.893 146.204 C 30.827 146.312,30.860 146.337,30.974 146.266 C 31.211 146.120,31.879 146.561,31.707 146.750 C 31.639 146.825,31.675 146.834,31.787 146.770 C 32.031 146.630,32.869 147.140,32.740 147.350 C 32.690 147.430,32.747 147.460,32.866 147.415 C 33.158 147.305,35.929 148.920,35.871 149.165 C 35.846 149.271,35.903 149.310,35.999 149.251 C 36.095 149.192,36.415 149.286,36.711 149.461 C 37.008 149.636,38.375 150.444,39.750 151.256 C 41.125 152.067,43.075 153.229,44.083 153.837 C 45.092 154.445,46.854 155.493,48.000 156.166 C 51.282 158.092,52.833 159.039,52.833 159.116 C 52.833 159.155,52.747 159.133,52.641 159.067 C 52.521 158.993,52.494 159.022,52.569 159.144 C 52.635 159.251,52.756 159.298,52.838 159.247 C 53.072 159.103,56.021 160.831,55.893 161.038 C 55.827 161.145,55.860 161.170,55.974 161.099 C 56.211 160.953,56.879 161.394,56.707 161.583 C 56.639 161.659,56.675 161.667,56.787 161.603 C 57.031 161.463,57.869 161.973,57.740 162.183 C 57.690 162.264,57.747 162.292,57.866 162.247 C 58.175 162.130,61.028 163.820,60.892 164.040 C 60.828 164.144,60.860 164.170,60.971 164.101 C 61.230 163.941,61.870 164.306,61.729 164.534 C 61.663 164.641,61.691 164.671,61.797 164.606 C 62.069 164.438,65.568 166.370,65.376 166.581 C 65.307 166.658,65.342 166.668,65.453 166.603 C 65.657 166.486,67.371 167.128,67.469 167.358 C 67.498 167.426,67.628 167.440,67.759 167.390 C 68.123 167.251,69.724 167.671,69.958 167.967 C 70.080 168.121,70.167 168.149,70.167 168.034 C 70.167 167.823,72.173 167.945,72.333 168.166 C 72.379 168.229,72.679 168.330,73.000 168.390 C 73.410 168.467,73.509 168.451,73.333 168.336 C 73.148 168.214,73.255 168.172,73.750 168.172 C 74.254 168.172,74.356 168.213,74.167 168.341 C 73.984 168.464,74.052 168.479,74.417 168.396 C 74.692 168.333,74.964 168.210,75.022 168.122 C 75.080 168.033,75.435 167.991,75.812 168.027 C 76.189 168.062,76.517 168.040,76.540 167.977 C 76.564 167.914,76.921 167.837,77.333 167.806 C 77.746 167.775,78.125 167.695,78.175 167.627 C 78.226 167.560,78.526 167.471,78.842 167.430 C 79.158 167.389,79.417 167.345,79.417 167.332 C 79.417 167.319,79.604 167.278,79.833 167.240 C 80.445 167.138,84.469 165.074,86.583 163.777 C 90.999 161.067,93.755 159.498,93.961 159.577 C 94.084 159.624,94.142 159.594,94.090 159.511 C 94.038 159.427,94.615 158.985,95.373 158.530 C 97.570 157.208,98.010 156.987,98.203 157.106 C 98.303 157.168,98.338 157.143,98.281 157.051 C 98.152 156.841,101.824 154.627,102.116 154.739 C 102.233 154.784,102.311 154.755,102.290 154.675 C 102.204 154.360,106.896 151.583,107.198 151.769 C 107.304 151.835,107.339 151.810,107.279 151.713 C 107.187 151.565,107.936 151.066,110.417 149.618 C 111.097 149.221,113.606 147.726,116.406 146.047 C 117.684 145.282,118.832 144.694,118.957 144.742 C 119.082 144.790,119.142 144.761,119.090 144.677 C 119.038 144.593,119.615 144.152,120.373 143.696 C 122.570 142.375,123.010 142.153,123.203 142.273 C 123.303 142.334,123.338 142.310,123.281 142.218 C 123.152 142.008,126.824 139.794,127.116 139.906 C 127.233 139.951,127.311 139.922,127.290 139.841 C 127.204 139.527,131.896 136.749,132.198 136.936 C 132.304 137.001,132.339 136.977,132.279 136.880 C 132.187 136.732,134.759 135.000,135.070 135.000 C 135.459 135.000,139.696 131.962,140.711 130.955 C 143.224 128.462,146.318 123.305,146.208 121.792 C 146.197 121.631,146.262 121.500,146.354 121.500 C 146.445 121.500,146.473 121.425,146.417 121.333 C 146.360 121.242,146.372 121.073,146.444 120.958 C 146.590 120.725,146.605 120.642,146.641 119.875 C 146.660 119.486,146.749 119.330,146.958 119.320 C 147.133 119.312,147.166 119.273,147.042 119.223 C 146.817 119.132,146.747 118.333,146.964 118.333 C 147.036 118.333,147.065 117.808,147.028 117.167 C 146.984 116.382,147.023 116.000,147.148 116.000 C 147.283 116.000,147.333 107.427,147.333 84.157 C 147.333 62.970,147.278 52.348,147.167 52.417 C 147.062 52.481,147.000 52.110,147.000 51.417 C 147.000 50.580,147.050 50.343,147.208 50.435 C 147.323 50.502,147.285 50.407,147.125 50.224 C 146.791 49.842,146.738 49.333,147.032 49.333 C 147.152 49.333,147.127 49.251,146.969 49.125 C 146.622 48.848,146.463 47.938,146.717 47.679 C 146.872 47.521,146.861 47.488,146.667 47.530 C 146.529 47.559,146.415 47.471,146.412 47.333 C 146.410 47.196,146.349 46.990,146.277 46.875 C 146.206 46.760,146.188 46.667,146.239 46.667 C 146.627 46.667,144.322 41.993,143.033 40.167 C 141.568 38.092,136.375 33.667,135.404 33.667 C 135.343 33.667,134.383 33.117,133.271 32.446 C 132.160 31.775,130.447 30.750,129.465 30.169 C 128.484 29.587,127.727 29.038,127.783 28.947 C 127.839 28.856,127.810 28.828,127.718 28.885 C 127.493 29.024,124.404 27.231,124.462 26.995 C 124.488 26.892,124.433 26.855,124.341 26.912 C 124.115 27.051,123.466 26.691,123.587 26.494 C 123.640 26.408,123.584 26.376,123.461 26.423 C 123.194 26.525,119.797 24.527,119.915 24.337 C 119.960 24.264,119.866 24.215,119.707 24.227 C 119.547 24.240,119.435 24.159,119.456 24.048 C 119.478 23.936,119.399 23.882,119.281 23.928 C 119.004 24.034,114.802 21.519,114.925 21.320 C 114.976 21.238,114.916 21.210,114.791 21.257 C 114.667 21.305,113.744 20.846,112.741 20.238 C 111.738 19.630,110.617 18.967,110.250 18.765 C 109.562 18.386,107.113 16.930,103.917 15.000 C 102.908 14.391,101.071 13.305,99.833 12.587 C 96.164 10.459,94.848 9.611,94.953 9.442 C 95.007 9.354,94.965 9.335,94.859 9.401 C 94.548 9.593,89.717 6.672,89.954 6.435 C 90.020 6.369,89.962 6.358,89.827 6.410 C 89.689 6.463,88.738 6.006,87.665 5.371 C 83.435 2.868,82.534 2.361,81.380 1.836 C 80.718 1.535,80.043 1.275,79.880 1.259 C 79.187 1.190,78.333 0.953,78.333 0.830 C 78.333 0.758,78.183 0.737,78.000 0.785 C 77.817 0.833,77.667 0.795,77.667 0.702 C 77.667 0.608,77.513 0.571,77.326 0.620 C 77.111 0.677,76.890 0.594,76.730 0.396 C 76.590 0.224,76.523 0.177,76.581 0.292 C 76.657 0.442,76.494 0.500,76.000 0.500 C 75.623 0.500,75.348 0.444,75.391 0.375 C 75.433 0.306,74.657 0.250,73.667 0.250 C 72.676 0.250,71.893 0.296,71.928 0.352 M76.959 4.240 C 78.810 4.632,81.052 5.566,83.167 6.827 C 88.254 9.861,92.816 12.573,95.083 13.910 C 97.598 15.393,100.382 17.046,104.083 19.253 C 105.183 19.909,107.208 21.109,108.583 21.920 C 109.958 22.732,111.721 23.781,112.500 24.251 C 113.279 24.722,115.042 25.770,116.417 26.579 C 119.570 28.435,122.035 29.898,124.583 31.424 C 125.683 32.083,128.796 33.937,131.500 35.544 C 139.434 40.260,142.276 43.602,143.226 49.333 L 143.323 49.917 143.037 49.508 C 141.439 47.229,139.848 46.400,137.350 46.545 C 134.941 46.685,134.712 46.796,126.833 51.672 C 125.596 52.437,123.970 53.443,123.219 53.907 C 122.469 54.371,120.782 55.416,119.469 56.231 C 118.157 57.045,116.146 58.288,115.000 58.993 C 113.854 59.697,112.092 60.786,111.083 61.412 C 110.075 62.038,108.275 63.152,107.083 63.887 C 105.892 64.621,104.167 65.686,103.250 66.252 C 102.333 66.818,100.608 67.882,99.417 68.616 C 98.225 69.350,96.125 70.648,94.750 71.501 C 93.375 72.353,91.612 73.440,90.833 73.916 C 90.054 74.392,88.292 75.479,86.917 76.332 C 85.542 77.184,83.556 78.408,82.505 79.051 C 76.473 82.744,73.688 85.781,72.392 90.083 C 72.033 91.275,71.817 156.081,72.164 158.417 C 72.505 160.711,74.113 163.121,75.797 163.863 L 76.583 164.209 76.083 164.364 C 73.490 165.165,68.229 164.028,64.627 161.889 C 63.778 161.385,61.996 160.328,60.667 159.541 C 59.337 158.753,57.350 157.570,56.250 156.911 C 55.150 156.251,52.375 154.603,50.083 153.248 C 46.159 150.927,44.185 149.755,39.417 146.915 C 38.317 146.260,36.292 145.062,34.917 144.254 C 33.542 143.445,31.742 142.375,30.917 141.876 C 30.092 141.377,27.579 139.883,25.333 138.555 C 10.470 129.772,10.944 130.071,9.170 128.333 C 5.947 125.177,4.210 121.488,3.833 117.000 C 3.619 114.452,3.618 54.072,3.831 51.493 C 4.205 46.982,6.116 42.975,9.346 39.928 C 10.773 38.582,11.652 38.005,17.750 34.416 C 19.583 33.337,21.796 32.028,22.667 31.506 C 23.537 30.985,25.337 29.914,26.667 29.127 C 27.996 28.340,30.771 26.692,32.833 25.465 C 34.896 24.238,37.708 22.571,39.083 21.760 C 40.458 20.950,42.296 19.859,43.167 19.336 C 44.038 18.813,45.875 17.722,47.250 16.910 C 48.625 16.098,51.400 14.451,53.417 13.249 C 55.433 12.047,58.396 10.286,60.000 9.336 C 61.604 8.387,63.652 7.168,64.551 6.629 C 66.880 5.232,69.402 4.330,72.083 3.934 C 72.967 3.804,75.713 3.976,76.959 4.240 M311.417 46.841 C 306.991 47.262,305.564 47.592,301.980 49.029 C 288.340 54.496,283.640 69.201,292.263 79.432 C 294.453 82.030,299.341 85.671,301.977 86.668 C 302.402 86.829,303.350 87.240,304.083 87.583 C 305.623 88.301,307.259 88.942,308.333 89.248 C 308.746 89.366,310.171 89.845,311.500 90.313 C 312.829 90.780,314.592 91.358,315.417 91.596 C 320.558 93.080,324.583 95.787,325.447 98.341 C 327.345 103.952,323.559 108.219,315.960 109.036 C 308.138 109.877,301.873 105.410,300.745 98.189 C 300.422 96.125,299.488 95.833,293.199 95.833 C 286.418 95.833,285.615 96.260,285.906 99.706 C 286.625 108.202,292.806 116.037,301.268 119.178 C 307.377 121.446,308.004 121.561,314.333 121.565 C 321.188 121.571,324.398 120.896,329.500 118.378 C 334.168 116.075,339.155 110.886,340.004 107.451 C 340.076 107.157,340.297 106.317,340.493 105.583 C 342.896 96.615,338.101 87.105,328.750 82.295 C 326.671 81.225,324.436 80.156,323.667 79.862 C 321.247 78.940,316.759 77.428,315.360 77.064 C 313.885 76.681,311.601 75.846,308.868 74.689 C 298.766 70.415,302.566 59.581,314.167 59.584 L 317.250 59.585 318.583 60.123 C 322.806 61.827,325.001 64.807,325.914 70.078 C 326.098 71.141,326.447 71.634,327.332 72.082 L 328.156 72.500 333.468 72.500 C 341.641 72.500,341.776 72.319,340.001 63.753 C 339.803 62.796,338.813 60.572,338.133 59.554 C 337.877 59.172,337.601 58.682,337.519 58.466 C 337.247 57.752,334.875 54.993,333.467 53.753 C 330.370 51.025,326.676 49.028,322.402 47.770 C 319.553 46.932,314.744 46.525,311.417 46.841 M169.911 47.715 C 169.148 48.019,168.736 48.363,168.349 49.020 L 167.998 49.615 168.040 84.379 L 168.083 119.142 168.427 119.602 C 169.354 120.844,168.163 120.744,182.720 120.801 C 197.756 120.859,198.844 120.787,203.167 119.431 C 203.854 119.216,204.754 118.947,205.167 118.834 C 210.063 117.494,215.843 112.472,218.222 107.492 C 220.810 102.074,220.642 93.730,217.860 89.506 C 217.707 89.274,217.432 88.790,217.250 88.430 C 217.067 88.071,216.614 87.434,216.243 87.014 C 215.872 86.594,215.368 85.987,215.123 85.667 C 214.655 85.052,212.794 83.514,211.457 82.636 L 210.664 82.115 211.207 81.792 C 213.726 80.297,216.922 75.713,217.587 72.641 C 219.324 64.624,217.028 57.979,210.833 53.102 C 209.822 52.305,205.919 50.132,205.000 49.853 C 204.679 49.756,203.817 49.489,203.083 49.259 C 201.389 48.729,199.391 48.270,197.167 47.900 C 194.918 47.526,170.796 47.363,169.911 47.715 M248.770 47.672 C 247.522 48.046,246.851 49.420,244.866 55.667 C 244.590 56.538,243.604 59.462,242.675 62.167 C 240.055 69.794,238.344 74.814,237.960 76.000 C 237.767 76.596,237.068 78.658,236.407 80.583 C 235.745 82.508,235.091 84.458,234.952 84.917 C 234.814 85.375,234.252 87.025,233.704 88.583 C 233.156 90.142,232.517 92.017,232.285 92.750 C 232.053 93.483,231.492 95.133,231.037 96.417 C 230.583 97.700,229.980 99.462,229.699 100.333 C 229.417 101.204,228.427 104.129,227.499 106.833 C 226.570 109.537,225.654 112.237,225.462 112.833 C 225.270 113.429,224.825 114.739,224.473 115.743 C 223.526 118.447,223.674 119.457,225.163 120.461 L 225.734 120.846 231.379 120.798 L 237.024 120.750 237.643 120.083 C 238.350 119.322,238.910 117.743,243.007 104.958 L 243.527 103.333 253.327 103.333 L 263.126 103.333 263.735 105.125 C 264.070 106.110,264.520 107.479,264.734 108.167 C 264.948 108.854,265.689 111.179,266.381 113.333 C 267.074 115.487,267.759 117.671,267.905 118.186 C 268.635 120.768,268.820 120.833,275.414 120.833 C 283.581 120.833,283.870 120.455,281.273 113.186 C 280.573 111.226,280.000 109.526,280.000 109.408 C 280.000 109.290,279.450 107.594,278.778 105.638 C 276.838 99.998,275.831 97.019,275.379 95.583 C 274.962 94.260,273.358 89.458,271.675 84.500 C 271.193 83.079,270.609 81.317,270.377 80.583 C 269.954 79.245,268.307 74.319,266.673 69.500 C 266.191 68.079,265.607 66.317,265.376 65.583 C 265.145 64.850,264.412 62.637,263.747 60.667 C 263.083 58.696,262.388 56.596,262.203 56.000 C 260.225 49.640,259.468 48.076,258.179 47.690 C 257.429 47.465,249.511 47.451,248.770 47.672 M349.005 47.759 C 348.229 48.102,347.852 48.465,347.570 49.142 C 347.174 50.090,347.236 118.689,347.633 119.485 C 348.266 120.753,348.220 120.744,354.202 120.798 L 359.547 120.847 360.203 120.412 C 361.568 119.509,361.492 120.464,361.496 104.042 L 361.500 89.500 373.333 89.500 L 385.167 89.500 385.167 104.411 L 385.167 119.322 385.682 119.909 C 386.473 120.810,386.856 120.860,392.513 120.802 L 397.610 120.750 398.198 120.301 C 399.436 119.356,399.333 122.612,399.333 84.277 C 399.333 48.408,399.352 49.325,398.614 48.520 C 397.749 47.576,397.323 47.508,392.269 47.504 C 387.025 47.500,386.616 47.564,385.744 48.529 L 385.167 49.168 385.167 63.000 L 385.167 76.833 373.333 76.833 L 361.500 76.833 361.496 63.375 C 361.492 48.241,361.560 49.072,360.240 48.064 L 359.610 47.583 354.597 47.543 C 350.392 47.510,349.490 47.545,349.005 47.759 M196.167 60.794 C 196.946 60.981,198.024 61.329,198.562 61.567 C 199.101 61.805,199.643 62.000,199.768 62.000 C 200.450 62.000,202.595 64.570,202.967 65.833 C 204.417 70.763,201.667 74.662,195.667 76.183 C 194.390 76.507,193.679 76.550,188.458 76.622 L 182.667 76.702 182.667 68.503 L 182.667 60.305 188.708 60.379 C 194.052 60.445,194.914 60.493,196.167 60.794 M254.312 75.625 C 255.341 78.801,257.382 85.175,258.248 87.917 C 258.595 89.017,258.915 90.010,258.958 90.125 C 259.019 90.289,257.846 90.333,253.434 90.333 C 248.929 90.333,247.833 90.291,247.833 90.115 C 247.833 89.995,248.161 88.996,248.561 87.894 C 248.962 86.792,249.460 85.297,249.668 84.571 C 249.876 83.844,250.601 81.563,251.278 79.500 C 251.956 77.438,252.711 75.131,252.957 74.375 C 253.202 73.619,253.416 73.000,253.432 73.000 C 253.448 73.000,253.844 74.181,254.312 75.625 M198.500 89.766 C 203.234 91.461,205.254 94.234,205.140 98.881 L 205.081 101.250 204.454 102.417 C 202.008 106.964,198.719 108.167,188.732 108.167 L 182.667 108.167 182.667 98.658 L 182.667 89.150 189.875 89.205 L 197.083 89.259 198.500 89.766 M95.661 92.822 C 95.756 93.000,95.833 94.170,95.833 95.424 C 95.833 97.528,95.856 97.693,96.125 97.585 C 96.942 97.255,99.280 96.979,100.139 97.111 C 101.508 97.320,101.527 97.414,100.781 100.294 C 99.922 103.615,100.018 103.500,98.121 103.502 C 93.910 103.507,90.667 106.159,90.667 109.598 C 90.667 111.617,91.429 112.094,95.032 112.329 C 100.151 112.662,101.845 114.054,102.332 118.326 C 102.844 122.811,101.059 127.661,97.542 131.343 L 96.000 132.957 96.000 135.442 C 96.000 138.430,96.055 138.320,93.893 139.610 C 91.769 140.878,91.786 140.890,91.628 137.916 C 91.483 135.188,91.680 135.466,90.167 135.859 C 88.544 136.281,85.838 136.244,85.389 135.794 C 85.070 135.475,85.089 135.326,85.874 131.868 C 86.265 130.148,86.775 129.389,87.408 129.583 C 92.089 131.019,97.813 126.401,96.975 121.864 C 96.662 120.165,95.841 119.688,92.868 119.477 C 87.693 119.110,86.065 118.066,85.486 114.740 C 84.729 110.394,86.466 105.427,90.035 101.734 L 91.500 100.217 91.500 97.729 C 91.500 94.755,91.453 94.853,93.540 93.483 C 95.172 92.411,95.402 92.339,95.661 92.822 M123.583 123.927 L 123.583 126.075 121.750 127.200 C 113.108 132.501,109.906 134.398,109.583 134.407 C 109.165 134.419,108.977 130.649,109.370 130.126 C 109.656 129.746,123.182 121.644,123.407 121.719 C 123.519 121.756,123.583 122.564,123.583 123.927 M224.093 131.072 C 222.205 131.773,221.583 133.036,221.583 136.167 C 221.583 140.239,222.948 141.691,226.373 141.263 C 229.964 140.814,230.683 133.042,227.294 131.313 C 226.410 130.862,224.953 130.752,224.093 131.072 M298.832 130.989 C 294.659 132.258,294.864 140.730,299.081 141.257 C 300.635 141.451,302.145 141.230,302.917 140.696 L 303.583 140.235 303.630 138.117 L 303.677 136.000 301.755 136.000 L 299.833 136.000 299.833 136.750 L 299.833 137.500 300.750 137.500 L 301.667 137.500 301.667 138.411 C 301.667 140.346,298.721 140.173,298.175 138.205 C 297.923 137.298,297.956 134.594,298.227 133.945 C 298.928 132.269,300.966 132.044,301.522 133.582 C 301.796 134.339,303.670 134.523,303.663 133.792 C 303.644 131.840,301.026 130.322,298.832 130.989 M352.083 130.987 C 349.887 131.602,348.986 133.167,349.827 134.904 C 350.289 135.858,350.702 136.141,352.621 136.824 C 354.961 137.657,355.600 138.543,354.468 139.384 C 353.458 140.135,351.872 139.701,351.345 138.530 C 351.116 138.021,351.068 138.000,350.115 138.000 L 349.123 138.000 349.224 138.622 C 349.824 142.320,357.086 142.319,357.067 138.621 C 357.059 137.032,355.989 136.005,353.485 135.184 C 352.102 134.730,351.413 134.083,351.650 133.460 C 352.159 132.123,354.355 132.213,354.932 133.594 C 355.167 134.157,355.188 134.167,356.182 134.167 L 357.193 134.167 357.077 133.625 C 356.652 131.652,354.247 130.382,352.083 130.987 M168.000 131.833 L 168.000 132.667 169.583 132.667 L 171.167 132.667 171.167 136.917 L 171.167 141.167 172.250 141.167 L 173.333 141.167 173.333 136.917 L 173.333 132.667 174.917 132.667 L 176.500 132.667 176.500 131.833 L 176.500 131.000 172.250 131.000 L 168.000 131.000 168.000 131.833 M179.333 136.083 L 179.333 141.167 180.250 141.167 L 181.167 141.167 181.167 139.000 L 181.167 136.833 182.833 136.833 L 184.500 136.833 184.500 139.000 L 184.500 141.167 185.500 141.167 L 186.500 141.167 186.500 136.083 L 186.500 131.000 185.500 131.000 L 184.500 131.000 184.500 133.083 L 184.500 135.167 182.833 135.167 L 181.167 135.167 181.167 133.083 L 181.167 131.000 180.250 131.000 L 179.333 131.000 179.333 136.083 M190.167 136.080 L 190.167 141.167 193.750 141.167 L 197.333 141.167 197.333 140.417 L 197.333 139.667 194.750 139.667 L 192.167 139.667 192.167 138.250 L 192.167 136.833 194.333 136.833 L 196.500 136.833 196.500 136.000 L 196.500 135.167 194.333 135.167 L 192.167 135.167 192.167 133.921 L 192.167 132.675 194.708 132.629 L 197.250 132.583 197.250 131.833 L 197.250 131.083 193.708 131.038 L 190.167 130.993 190.167 136.080 M211.333 136.066 L 211.333 141.167 214.027 141.167 C 216.596 141.167,216.754 141.147,217.428 140.752 C 219.061 139.795,219.336 137.211,217.900 136.323 L 217.330 135.971 217.822 135.511 C 218.412 134.959,218.567 134.427,218.461 133.319 C 218.296 131.599,217.373 131.140,213.875 131.038 L 211.333 130.964 211.333 136.066 M232.504 134.792 C 232.510 140.127,232.848 140.978,235.076 141.256 C 238.956 141.741,239.726 140.715,239.803 134.958 L 239.855 131.000 238.761 131.000 L 237.667 131.000 237.667 134.885 L 237.667 138.771 237.188 139.229 C 236.388 139.996,235.203 139.848,234.766 138.927 C 234.547 138.466,234.500 137.711,234.500 134.683 L 234.500 131.000 233.500 131.000 L 232.500 131.000 232.504 134.792 M243.167 136.083 L 243.167 141.167 244.167 141.167 L 245.167 141.167 245.167 139.250 L 245.167 137.333 245.964 137.333 L 246.761 137.333 247.256 138.354 C 247.528 138.916,247.947 139.760,248.187 140.229 L 248.625 141.083 249.729 141.133 C 250.336 141.160,250.833 141.136,250.833 141.081 C 250.833 141.025,250.383 140.083,249.833 138.987 C 248.653 136.633,248.706 136.939,249.400 136.510 C 250.487 135.838,250.836 133.904,250.125 132.494 C 249.567 131.388,248.374 131.014,245.375 131.006 L 243.167 131.000 243.167 136.083 M253.667 136.075 L 253.667 141.167 254.663 141.167 L 255.659 141.167 255.705 138.042 L 255.750 134.917 257.299 138.042 L 258.848 141.167 259.924 141.167 L 261.000 141.167 261.000 136.083 L 261.000 131.000 259.920 131.000 L 258.841 131.000 258.795 134.042 L 258.750 137.083 257.250 134.083 L 255.750 131.083 254.708 131.034 L 253.667 130.984 253.667 136.075 M264.611 131.111 C 264.550 131.172,264.500 133.460,264.500 136.194 L 264.500 141.167 268.083 141.167 L 271.667 141.167 271.667 140.417 L 271.667 139.667 269.167 139.667 L 266.667 139.667 266.667 138.255 L 266.667 136.843 268.792 136.797 L 270.917 136.750 270.967 135.958 L 271.018 135.167 268.842 135.167 L 266.667 135.167 266.667 133.917 L 266.667 132.667 269.167 132.667 L 271.667 132.667 271.667 131.833 L 271.667 131.000 268.194 131.000 C 266.285 131.000,264.672 131.050,264.611 131.111 M288.099 131.868 C 287.924 132.353,287.727 133.012,287.660 133.333 C 287.593 133.654,287.004 135.366,286.352 137.136 C 284.848 141.222,284.849 141.198,286.203 141.133 C 287.219 141.084,287.241 141.073,287.369 140.542 C 287.441 140.244,287.559 139.756,287.631 139.458 L 287.762 138.917 289.279 138.869 L 290.797 138.821 291.153 139.994 L 291.510 141.167 292.582 141.167 L 293.654 141.167 293.085 139.458 C 292.772 138.519,292.006 136.250,291.383 134.417 L 290.250 131.083 289.333 131.035 L 288.417 130.986 288.099 131.868 M309.535 131.535 C 309.194 132.424,306.333 140.931,306.333 141.054 C 306.333 141.116,306.807 141.167,307.386 141.167 L 308.438 141.167 308.761 140.042 L 309.085 138.917 310.617 138.869 L 312.150 138.821 312.408 139.691 C 312.550 140.169,312.667 140.697,312.667 140.864 C 312.667 141.128,312.816 141.167,313.829 141.167 L 314.991 141.167 313.816 137.792 C 313.169 135.935,312.539 134.042,312.416 133.583 C 312.293 133.125,312.053 132.375,311.883 131.917 L 311.574 131.083 310.660 131.035 C 309.763 130.987,309.741 130.996,309.535 131.535 M317.833 131.833 L 317.833 132.667 319.000 132.667 L 320.167 132.667 320.167 136.167 L 320.167 139.667 319.000 139.667 L 317.833 139.667 317.833 140.417 L 317.833 141.167 321.167 141.167 L 324.500 141.167 324.500 140.417 L 324.500 139.667 323.333 139.667 L 322.167 139.667 322.167 136.167 L 322.167 132.667 323.333 132.667 L 324.500 132.667 324.500 131.833 L 324.500 131.000 321.167 131.000 L 317.833 131.000 317.833 131.833 M328.000 136.083 L 328.000 141.167 329.080 141.167 L 330.159 141.167 330.205 138.133 L 330.250 135.100 331.750 138.128 L 333.250 141.156 334.292 141.161 L 335.333 141.167 335.333 136.083 L 335.333 131.000 334.333 131.000 L 333.333 131.000 333.332 134.125 L 333.332 137.250 332.921 136.583 C 332.695 136.217,332.508 135.822,332.505 135.706 C 332.502 135.591,331.964 134.485,331.308 133.248 L 330.116 131.000 329.058 131.000 L 328.000 131.000 328.000 136.083 M360.164 131.042 C 360.163 131.065,360.144 133.352,360.123 136.125 L 360.083 141.167 361.042 141.167 L 362.000 141.167 362.000 139.000 L 362.000 136.833 363.583 136.833 L 365.167 136.833 365.167 139.000 L 365.167 141.167 366.250 141.167 L 367.333 141.167 367.333 136.083 L 367.333 131.000 366.250 131.000 L 365.167 131.000 365.167 133.083 L 365.167 135.167 363.583 135.167 L 362.000 135.167 362.000 133.083 L 362.000 131.000 361.083 131.000 C 360.579 131.000,360.166 131.019,360.164 131.042 M370.833 136.083 L 370.833 141.167 374.417 141.167 L 378.000 141.167 378.000 140.417 L 378.000 139.667 375.417 139.667 L 372.833 139.667 372.833 138.255 L 372.833 136.843 375.042 136.797 L 377.250 136.750 377.301 135.958 L 377.352 135.167 375.092 135.167 L 372.833 135.167 372.833 133.917 L 372.833 132.667 375.333 132.667 L 377.833 132.667 377.833 131.833 L 377.833 131.000 374.333 131.000 L 370.833 131.000 370.833 136.083 M381.667 136.083 L 381.667 141.167 385.167 141.167 L 388.667 141.167 388.667 140.417 L 388.667 139.667 386.167 139.667 L 383.667 139.667 383.667 135.333 L 383.667 131.000 382.667 131.000 L 381.667 131.000 381.667 136.083 M392.333 136.083 L 392.333 141.167 395.833 141.167 L 399.333 141.167 399.333 140.417 L 399.333 139.667 396.833 139.667 L 394.333 139.667 394.333 135.333 L 394.333 131.000 393.333 131.000 L 392.333 131.000 392.333 136.083 M226.343 132.951 C 228.215 134.526,227.525 139.667,225.441 139.667 C 224.090 139.667,223.585 138.716,223.585 136.167 C 223.585 133.090,224.811 131.661,226.343 132.951 M215.821 132.911 C 217.292 133.671,216.353 135.167,214.404 135.167 L 213.333 135.167 213.333 133.917 L 213.333 132.667 214.342 132.667 C 214.901 132.667,215.560 132.775,215.821 132.911 M248.013 133.154 C 249.159 134.300,248.315 135.653,246.366 135.792 L 245.167 135.878 245.167 134.272 L 245.167 132.667 246.346 132.667 C 247.428 132.667,247.566 132.707,248.013 133.154 M290.164 136.792 C 290.166 137.135,290.090 137.167,289.265 137.167 L 288.363 137.167 288.881 135.595 L 289.398 134.023 289.780 135.220 C 289.990 135.878,290.163 136.585,290.164 136.792 M311.497 137.042 C 311.498 137.110,311.091 137.167,310.592 137.167 L 309.684 137.167 309.824 136.708 C 309.902 136.456,310.098 135.728,310.260 135.091 L 310.555 133.932 311.024 135.424 C 311.282 136.245,311.495 136.973,311.497 137.042 M275.833 136.750 L 275.833 137.500 278.917 137.500 L 282.000 137.500 282.000 136.750 L 282.000 136.000 278.917 136.000 L 275.833 136.000 275.833 136.750 M216.351 137.298 C 217.445 138.524,216.434 139.667,214.255 139.667 L 213.333 139.667 213.333 138.148 L 213.333 136.630 214.601 136.694 C 215.783 136.754,215.900 136.794,216.351 137.298 " stroke="none" fill="#3c444c" fill-rule="evenodd"></path><path id="path2" d="M116.173 125.920 C 112.463 128.152,109.375 130.115,109.309 130.281 C 108.994 131.080,109.174 134.500,109.530 134.500 C 109.773 134.500,123.217 126.318,123.458 126.024 C 123.885 125.504,123.738 121.831,123.292 121.848 C 123.085 121.856,119.882 123.688,116.173 125.920 " stroke="none" fill="#47b257" fill-rule="evenodd"></path><path id="path3" d="M70.833 0.344 C 70.833 0.533,71.281 0.553,71.395 0.368 C 71.440 0.295,71.332 0.225,71.155 0.212 C 70.978 0.198,70.833 0.258,70.833 0.344 M73.047 0.289 C 73.485 0.324,74.160 0.323,74.547 0.288 C 74.934 0.254,74.575 0.225,73.750 0.226 C 72.925 0.226,72.609 0.255,73.047 0.289 M81.014 1.564 C 81.184 1.719,83.167 2.663,83.167 2.588 C 83.167 2.495,81.241 1.500,81.060 1.500 C 80.997 1.500,80.976 1.529,81.014 1.564 M60.831 4.439 C 59.838 5.096,59.270 5.588,60.083 5.086 C 61.448 4.243,62.006 3.833,61.789 3.833 C 61.765 3.833,61.334 4.106,60.831 4.439 M75.208 4.115 C 75.369 4.157,75.631 4.157,75.792 4.115 C 75.952 4.073,75.821 4.039,75.500 4.039 C 75.179 4.039,75.048 4.073,75.208 4.115 M86.333 4.385 C 86.333 4.424,86.652 4.666,87.042 4.923 C 87.431 5.180,87.662 5.284,87.554 5.153 C 87.348 4.903,86.333 4.265,86.333 4.385 M81.333 5.908 C 81.333 5.954,81.558 6.108,81.833 6.250 C 82.108 6.392,82.333 6.471,82.333 6.425 C 82.333 6.379,82.108 6.226,81.833 6.083 C 81.558 5.941,81.333 5.862,81.333 5.908 M89.112 6.013 C 89.319 6.264,90.333 6.902,90.333 6.782 C 90.333 6.743,90.015 6.501,89.625 6.244 C 89.235 5.987,89.005 5.883,89.112 6.013 M93.167 8.375 C 93.167 8.448,93.502 8.684,94.875 9.574 C 95.127 9.738,95.333 9.836,95.333 9.791 C 95.333 9.718,94.998 9.483,93.625 8.592 C 93.373 8.429,93.167 8.331,93.167 8.375 M50.555 10.479 C 49.539 11.119,49.449 11.291,50.417 10.745 C 51.405 10.186,51.408 10.184,51.319 10.104 C 51.281 10.070,50.937 10.238,50.555 10.479 M98.250 11.458 C 98.574 11.794,100.333 12.841,100.333 12.699 C 100.333 12.619,100.165 12.471,99.958 12.370 C 99.752 12.269,99.246 11.984,98.833 11.736 C 98.421 11.489,98.158 11.363,98.250 11.458 M47.955 12.089 C 47.613 12.322,47.333 12.544,47.333 12.584 C 47.333 12.692,48.487 11.989,48.594 11.817 C 48.736 11.586,48.629 11.632,47.955 12.089 M40.580 16.440 C 39.730 17.004,39.430 17.301,40.094 16.923 C 40.679 16.589,41.459 16.009,41.330 16.004 C 41.283 16.002,40.945 16.198,40.580 16.440 M106.656 16.468 C 106.879 16.649,107.291 16.924,107.572 17.079 L 108.083 17.361 107.678 17.032 C 107.455 16.851,107.042 16.576,106.761 16.421 L 106.250 16.139 106.656 16.468 M37.667 18.182 C 37.390 18.408,37.362 18.465,37.583 18.350 C 38.127 18.069,38.428 17.838,38.250 17.840 C 38.158 17.840,37.896 17.994,37.667 18.182 M35.580 19.440 C 34.730 20.004,34.430 20.301,35.094 19.923 C 35.679 19.589,36.459 19.009,36.330 19.004 C 36.283 19.002,35.945 19.198,35.580 19.440 M111.333 19.218 C 111.333 19.257,111.652 19.499,112.042 19.756 C 112.431 20.013,112.662 20.117,112.554 19.987 C 112.348 19.736,111.333 19.098,111.333 19.218 M114.112 20.847 C 114.319 21.097,115.333 21.735,115.333 21.615 C 115.333 21.576,115.015 21.334,114.625 21.077 C 114.235 20.820,114.005 20.716,114.112 20.847 M31.324 21.968 C 30.917 22.225,30.441 22.489,30.268 22.555 C 30.094 22.621,29.996 22.718,30.049 22.771 C 30.137 22.859,32.167 21.698,32.167 21.560 C 32.167 21.450,32.070 21.497,31.324 21.968 M27.955 23.923 C 27.613 24.155,27.333 24.378,27.333 24.417 C 27.333 24.525,28.487 23.823,28.594 23.650 C 28.736 23.419,28.629 23.465,27.955 23.923 M118.989 23.802 C 119.212 23.983,119.625 24.258,119.906 24.413 L 120.417 24.694 120.011 24.365 C 119.788 24.184,119.375 23.909,119.094 23.754 L 118.583 23.472 118.989 23.802 M25.208 25.519 C 24.456 26.001,24.526 26.112,25.292 25.651 C 26.066 25.185,26.091 25.166,25.903 25.169 C 25.819 25.171,25.506 25.328,25.208 25.519 M124.081 26.829 C 124.210 27.038,125.334 27.673,125.332 27.536 C 125.331 27.470,125.030 27.254,124.663 27.054 C 124.296 26.855,124.034 26.754,124.081 26.829 M128.167 29.231 C 128.167 29.346,129.342 30.047,129.414 29.975 C 129.449 29.940,129.183 29.741,128.822 29.534 C 128.462 29.326,128.167 29.190,128.167 29.231 M15.580 31.273 C 14.730 31.837,14.430 32.135,15.094 31.756 C 15.679 31.422,16.459 30.843,16.330 30.837 C 16.283 30.835,15.945 31.031,15.580 31.273 M131.656 31.302 C 131.879 31.483,132.291 31.758,132.572 31.913 L 133.083 32.194 132.678 31.865 C 132.455 31.684,132.042 31.409,131.761 31.254 L 131.250 30.972 131.656 31.302 M134.417 32.920 C 134.600 33.069,134.900 33.265,135.083 33.355 L 135.417 33.518 135.083 33.247 C 134.900 33.098,134.600 32.902,134.417 32.812 L 134.083 32.648 134.417 32.920 M10.622 34.256 C 10.280 34.488,10.000 34.715,10.000 34.758 C 10.000 34.802,10.300 34.640,10.667 34.397 C 11.249 34.012,11.446 33.833,11.289 33.833 C 11.264 33.833,10.964 34.024,10.622 34.256 M136.333 34.052 C 136.333 34.091,136.652 34.333,137.042 34.590 C 137.431 34.846,137.662 34.950,137.554 34.820 C 137.348 34.570,136.333 33.932,136.333 34.052 M8.177 35.837 C 7.862 36.106,7.642 36.364,7.688 36.411 C 7.735 36.457,8.026 36.234,8.336 35.914 C 9.020 35.208,8.951 35.175,8.177 35.837 M139.750 36.484 C 140.411 37.189,142.000 38.590,142.000 38.468 C 142.000 38.433,141.344 37.812,140.542 37.089 C 139.740 36.366,139.383 36.094,139.750 36.484 M6.583 37.299 C 6.125 37.730,5.603 38.271,5.423 38.500 C 5.243 38.729,5.637 38.394,6.298 37.754 C 7.384 36.704,7.589 36.484,7.458 36.508 C 7.435 36.512,7.042 36.868,6.583 37.299 M138.250 40.333 C 138.887 40.975,139.445 41.500,139.491 41.500 C 139.537 41.500,139.053 40.975,138.417 40.333 C 137.780 39.692,137.221 39.167,137.176 39.167 C 137.130 39.167,137.613 39.692,138.250 40.333 M8.828 40.458 L 7.917 41.417 8.875 40.506 C 9.765 39.659,9.910 39.500,9.786 39.500 C 9.760 39.500,9.329 39.931,8.828 40.458 M144.845 42.917 C 144.845 43.008,144.952 43.271,145.083 43.500 C 145.214 43.729,145.322 43.842,145.322 43.750 C 145.322 43.658,145.214 43.396,145.083 43.167 C 144.952 42.938,144.845 42.825,144.845 42.917 M141.083 44.000 C 141.226 44.275,141.379 44.500,141.425 44.500 C 141.471 44.500,141.392 44.275,141.250 44.000 C 141.108 43.725,140.954 43.500,140.908 43.500 C 140.862 43.500,140.941 43.725,141.083 44.000 M145.512 44.417 C 145.512 44.508,145.619 44.771,145.750 45.000 C 145.881 45.229,145.988 45.342,145.988 45.250 C 145.988 45.158,145.881 44.896,145.750 44.667 C 145.619 44.438,145.512 44.325,145.512 44.417 M147.074 50.681 C 147.013 50.781,147.046 50.946,147.148 51.048 C 147.284 51.184,147.333 51.136,147.333 50.867 C 147.333 50.464,147.247 50.402,147.074 50.681 M0.205 51.167 C 0.205 51.487,0.240 51.619,0.282 51.458 C 0.323 51.298,0.323 51.035,0.282 50.875 C 0.240 50.715,0.205 50.846,0.205 51.167 M3.885 51.750 C 3.886 52.300,3.917 52.505,3.954 52.205 C 3.991 51.906,3.990 51.456,3.952 51.205 C 3.914 50.955,3.884 51.200,3.885 51.750 M79.789 80.589 C 79.447 80.822,79.167 81.048,79.167 81.092 C 79.167 81.136,79.467 80.973,79.833 80.730 C 80.416 80.345,80.612 80.167,80.455 80.167 C 80.431 80.167,80.131 80.357,79.789 80.589 M76.328 83.458 L 75.417 84.417 76.375 83.506 C 77.265 82.659,77.410 82.500,77.286 82.500 C 77.260 82.500,76.829 82.931,76.328 83.458 M95.733 95.500 C 95.733 96.829,95.759 97.373,95.790 96.708 C 95.822 96.044,95.822 94.956,95.790 94.292 C 95.759 93.627,95.733 94.171,95.733 95.500 M91.845 94.772 C 91.526 95.179,91.502 95.405,91.534 97.814 L 91.567 100.417 91.659 97.725 C 91.738 95.391,91.792 94.987,92.067 94.684 C 92.242 94.491,92.341 94.333,92.288 94.333 C 92.235 94.333,92.035 94.531,91.845 94.772 M90.162 101.625 L 89.083 102.750 90.208 101.671 C 90.827 101.078,91.333 100.572,91.333 100.546 C 91.333 100.424,91.164 100.580,90.162 101.625 M99.083 103.333 L 98.583 103.461 99.032 103.480 C 99.279 103.491,99.527 103.425,99.583 103.333 C 99.640 103.242,99.663 103.176,99.635 103.186 C 99.607 103.197,99.358 103.263,99.083 103.333 M90.548 109.583 C 90.549 110.042,90.581 110.209,90.620 109.956 C 90.658 109.703,90.657 109.328,90.617 109.123 C 90.578 108.918,90.546 109.125,90.548 109.583 M85.390 112.750 C 85.391 113.483,85.420 113.763,85.456 113.371 C 85.491 112.979,85.490 112.379,85.454 112.037 C 85.419 111.696,85.390 112.017,85.390 112.750 M94.042 112.453 C 94.294 112.491,94.706 112.491,94.958 112.453 C 95.210 112.415,95.004 112.383,94.500 112.383 C 93.996 112.383,93.790 112.415,94.042 112.453 M3.885 116.750 C 3.886 117.300,3.917 117.505,3.954 117.205 C 3.991 116.906,3.990 116.456,3.952 116.205 C 3.914 115.955,3.884 116.200,3.885 116.750 M0.205 117.333 C 0.205 117.654,0.240 117.785,0.282 117.625 C 0.323 117.465,0.323 117.202,0.282 117.042 C 0.240 116.881,0.205 117.013,0.205 117.333 M86.833 117.583 C 87.144 117.904,87.436 118.167,87.482 118.167 C 87.528 118.167,87.311 117.904,87.000 117.583 C 86.689 117.263,86.397 117.000,86.351 117.000 C 86.305 117.000,86.522 117.263,86.833 117.583 M96.348 120.436 C 96.569 120.722,96.784 120.926,96.824 120.890 C 96.865 120.853,96.684 120.619,96.422 120.370 L 95.945 119.917 96.348 120.436 M145.613 123.758 C 145.222 124.579,145.277 124.719,145.686 123.943 C 145.872 123.590,145.995 123.272,145.959 123.236 C 145.923 123.200,145.767 123.435,145.613 123.758 M1.678 123.917 C 1.678 124.008,1.786 124.271,1.917 124.500 C 2.048 124.729,2.155 124.842,2.155 124.750 C 2.155 124.658,2.048 124.396,1.917 124.167 C 1.786 123.938,1.678 123.825,1.678 123.917 M2.583 125.833 C 2.726 126.108,2.879 126.333,2.925 126.333 C 2.971 126.333,2.892 126.108,2.750 125.833 C 2.608 125.558,2.454 125.333,2.408 125.333 C 2.362 125.333,2.441 125.558,2.583 125.833 M95.000 127.417 C 94.595 127.829,94.301 128.167,94.347 128.167 C 94.393 128.167,94.762 127.829,95.167 127.417 C 95.572 127.004,95.865 126.667,95.819 126.667 C 95.774 126.667,95.405 127.004,95.000 127.417 M143.465 127.834 C 143.124 128.292,142.899 128.664,142.965 128.661 C 143.084 128.656,143.362 128.302,143.908 127.458 C 144.388 126.718,144.134 126.932,143.465 127.834 M8.826 128.042 C 9.235 128.477,9.591 128.833,9.618 128.833 C 9.743 128.833,9.611 128.684,8.875 127.993 L 8.083 127.250 8.826 128.042 M4.117 128.411 C 4.282 128.638,4.486 128.825,4.571 128.828 C 4.655 128.831,4.549 128.646,4.333 128.417 C 3.834 127.885,3.732 127.882,4.117 128.411 M86.512 130.106 C 86.322 130.347,86.170 130.666,86.173 130.814 C 86.177 130.962,86.282 130.847,86.408 130.558 C 86.534 130.270,86.775 129.953,86.943 129.855 C 87.112 129.757,87.162 129.675,87.054 129.672 C 86.946 129.669,86.702 129.864,86.512 130.106 M88.621 129.954 C 88.917 129.990,89.442 129.991,89.788 129.955 C 90.134 129.919,89.892 129.889,89.250 129.888 C 88.608 129.887,88.325 129.917,88.621 129.954 M140.494 131.347 L 139.083 132.694 140.542 131.404 C 141.866 130.231,142.098 130.000,141.952 130.000 C 141.926 130.000,141.269 130.606,140.494 131.347 M5.833 130.465 C 5.833 130.545,6.133 130.852,6.500 131.147 C 6.867 131.441,7.167 131.653,7.167 131.618 C 7.167 131.583,6.867 131.276,6.500 130.937 C 6.133 130.597,5.833 130.385,5.833 130.465 M97.078 131.708 L 96.083 132.750 97.125 131.755 C 98.093 130.831,98.243 130.667,98.120 130.667 C 98.094 130.667,97.625 131.135,97.078 131.708 M7.544 131.994 C 7.670 132.174,7.993 132.487,8.261 132.689 C 8.635 132.971,8.595 132.894,8.091 132.362 C 7.377 131.609,7.182 131.477,7.544 131.994 M95.894 134.417 C 95.895 135.333,95.923 135.687,95.956 135.203 C 95.990 134.718,95.990 133.968,95.956 133.536 C 95.921 133.104,95.894 133.500,95.894 134.417 M10.167 133.868 C 10.304 134.004,10.717 134.284,11.083 134.491 C 11.645 134.807,11.686 134.814,11.344 134.534 C 10.788 134.079,9.834 133.539,10.167 133.868 M136.701 134.072 C 135.926 134.619,135.817 134.775,136.471 134.401 C 136.776 134.226,137.104 133.990,137.200 133.875 C 137.446 133.581,137.331 133.626,136.701 134.072 M132.042 136.853 C 131.474 137.216,131.290 137.461,131.792 137.185 C 132.174 136.975,132.773 136.511,132.667 136.508 C 132.621 136.507,132.340 136.662,132.042 136.853 M15.322 136.968 C 15.545 137.149,15.958 137.424,16.239 137.579 L 16.750 137.861 16.344 137.532 C 16.121 137.351,15.709 137.076,15.428 136.921 L 14.917 136.639 15.322 136.968 M129.000 138.678 C 128.496 138.956,128.009 139.262,127.917 139.360 C 127.739 139.548,129.641 138.542,129.908 138.306 C 130.190 138.058,129.936 138.162,129.000 138.678 M18.000 138.579 C 18.000 138.623,18.244 138.777,18.542 138.922 L 19.083 139.187 18.667 138.847 C 18.265 138.520,18.000 138.413,18.000 138.579 M127.042 139.853 C 126.474 140.216,126.290 140.461,126.792 140.185 C 127.174 139.975,127.773 139.511,127.667 139.508 C 127.621 139.507,127.340 139.662,127.042 139.853 M20.322 139.968 C 20.545 140.149,20.958 140.424,21.239 140.579 L 21.750 140.861 21.344 140.532 C 21.121 140.351,20.709 140.076,20.428 139.921 L 19.917 139.639 20.322 139.968 M124.190 141.503 C 123.202 142.152,123.098 142.303,123.968 141.823 C 124.363 141.606,124.766 141.332,124.863 141.214 C 125.108 140.919,125.025 140.955,124.190 141.503 M25.333 142.985 C 25.563 143.173,25.825 143.326,25.917 143.327 C 26.095 143.328,25.794 143.098,25.250 142.817 C 25.029 142.702,25.057 142.759,25.333 142.985 M35.167 148.702 C 35.304 148.837,35.717 149.118,36.083 149.324 C 36.645 149.641,36.686 149.647,36.344 149.368 C 35.788 148.912,34.834 148.373,35.167 148.702 M111.701 148.905 C 110.867 149.494,110.837 149.591,111.624 149.148 C 112.013 148.929,112.331 148.694,112.332 148.625 C 112.334 148.458,112.331 148.459,111.701 148.905 M44.000 149.575 C 44.000 149.621,44.225 149.774,44.500 149.917 C 44.775 150.059,45.000 150.138,45.000 150.092 C 45.000 150.046,44.775 149.892,44.500 149.750 C 44.225 149.608,44.000 149.529,44.000 149.575 M107.042 151.686 C 106.474 152.050,106.290 152.294,106.792 152.018 C 107.174 151.808,107.773 151.345,107.667 151.341 C 107.621 151.340,107.340 151.495,107.042 151.686 M40.167 151.702 C 40.304 151.837,40.717 152.118,41.083 152.324 C 41.645 152.641,41.686 152.647,41.344 152.368 C 40.788 151.912,39.834 151.373,40.167 151.702 M104.000 153.511 C 103.496 153.789,103.009 154.096,102.917 154.193 C 102.739 154.382,104.641 153.376,104.908 153.140 C 105.190 152.892,104.936 152.995,104.000 153.511 M102.042 154.686 C 101.474 155.050,101.290 155.294,101.792 155.018 C 102.174 154.808,102.773 154.345,102.667 154.341 C 102.621 154.340,102.340 154.495,102.042 154.686 M45.322 154.802 C 45.545 154.983,45.958 155.258,46.239 155.413 L 46.750 155.694 46.344 155.365 C 46.121 155.184,45.709 154.909,45.428 154.754 L 44.917 154.472 45.322 154.802 M99.190 156.336 C 98.143 157.025,98.114 157.126,99.125 156.567 C 99.606 156.301,100.000 156.027,100.000 155.958 C 100.000 155.798,100.037 155.780,99.190 156.336 M47.779 156.180 C 47.986 156.430,49.000 157.068,49.000 156.948 C 49.000 156.909,48.681 156.667,48.292 156.410 C 47.902 156.154,47.671 156.050,47.779 156.180 M94.477 159.176 C 94.104 159.501,94.103 159.510,94.449 159.342 C 94.650 159.245,94.861 159.090,94.917 158.999 C 95.081 158.734,94.901 158.806,94.477 159.176 M89.222 162.302 C 88.292 162.901,88.080 163.157,88.917 162.670 C 89.532 162.312,90.175 161.819,89.994 161.844 C 89.951 161.850,89.604 162.056,89.222 162.302 M86.701 163.738 C 85.867 164.327,85.837 164.424,86.624 163.981 C 87.013 163.762,87.331 163.527,87.332 163.458 C 87.334 163.291,87.331 163.292,86.701 163.738 M63.667 165.646 C 63.667 165.731,63.892 165.879,64.167 165.975 C 64.442 166.071,64.667 166.118,64.667 166.079 C 64.667 166.040,64.442 165.892,64.167 165.750 C 63.892 165.608,63.667 165.561,63.667 165.646 " stroke="none" fill="#828789" fill-rule="evenodd"></path><path id="path4" d="M71.271 0.368 C 71.316 0.441,71.503 0.500,71.686 0.500 C 71.870 0.500,71.976 0.430,71.923 0.344 C 71.870 0.258,71.683 0.199,71.508 0.212 C 71.333 0.225,71.226 0.295,71.271 0.368 M75.403 0.356 C 75.356 0.431,75.614 0.476,75.975 0.455 C 76.337 0.434,76.602 0.365,76.563 0.303 C 76.467 0.144,75.507 0.188,75.403 0.356 M70.083 0.500 C 69.786 0.628,69.798 0.644,70.198 0.655 C 70.445 0.661,70.693 0.592,70.750 0.500 C 70.873 0.301,70.546 0.301,70.083 0.500 M68.750 0.785 C 67.563 1.132,67.441 1.350,68.610 1.035 C 69.636 0.759,69.765 0.705,69.653 0.604 C 69.615 0.569,69.208 0.651,68.750 0.785 M78.333 0.826 C 78.333 0.899,78.540 1.000,78.792 1.051 C 79.044 1.102,79.400 1.197,79.583 1.263 C 79.814 1.346,79.865 1.328,79.750 1.207 C 79.532 0.977,78.333 0.655,78.333 0.826 M63.470 2.886 C 63.349 3.006,62.894 3.314,62.458 3.568 C 61.331 4.228,61.474 4.307,62.625 3.660 C 64.031 2.870,64.306 2.667,63.966 2.667 C 63.814 2.667,63.591 2.765,63.470 2.886 M83.917 3.124 C 84.008 3.215,84.458 3.491,84.917 3.737 C 85.375 3.983,85.607 4.087,85.431 3.967 C 85.256 3.848,84.975 3.619,84.806 3.458 C 84.638 3.298,84.500 3.207,84.500 3.256 C 84.500 3.305,84.331 3.258,84.125 3.152 C 83.919 3.046,83.825 3.033,83.917 3.124 M73.042 3.955 C 73.385 3.991,73.948 3.991,74.292 3.955 C 74.635 3.919,74.354 3.889,73.667 3.889 C 72.979 3.889,72.698 3.919,73.042 3.955 M88.001 5.458 C 88.002 5.527,88.321 5.756,88.710 5.968 C 89.335 6.308,89.368 6.313,89.000 6.010 C 88.771 5.821,88.493 5.592,88.382 5.500 C 88.143 5.302,88.000 5.286,88.001 5.458 M58.500 5.917 C 58.189 6.146,57.991 6.333,58.060 6.333 C 58.128 6.333,58.460 6.146,58.798 5.917 C 59.135 5.688,59.333 5.500,59.238 5.500 C 59.143 5.500,58.811 5.688,58.500 5.917 M54.539 8.238 C 54.056 8.538,53.606 8.845,53.539 8.921 C 53.389 9.090,55.353 8.023,55.575 7.815 C 55.915 7.496,55.384 7.713,54.539 8.238 M91.921 7.891 C 92.574 8.335,93.833 9.030,93.833 8.945 C 93.833 8.832,91.918 7.667,91.733 7.667 C 91.656 7.667,91.740 7.768,91.921 7.891 M96.261 10.316 C 96.178 10.451,96.805 10.882,97.958 11.483 C 98.626 11.831,98.355 11.544,97.595 11.099 C 97.189 10.861,96.744 10.553,96.606 10.415 C 96.468 10.277,96.312 10.233,96.261 10.316 M50.208 10.851 C 49.727 11.131,49.333 11.394,49.333 11.434 C 49.333 11.535,50.509 10.917,50.917 10.602 C 51.440 10.197,51.162 10.295,50.208 10.851 M46.804 12.714 C 46.344 13.160,45.541 13.653,45.440 13.551 C 45.381 13.492,45.333 13.532,45.333 13.639 C 45.333 13.746,45.382 13.833,45.441 13.833 C 45.642 13.833,46.999 12.917,47.000 12.782 C 47.000 12.708,47.075 12.693,47.167 12.750 C 47.258 12.807,47.333 12.774,47.333 12.677 C 47.333 12.436,47.071 12.454,46.804 12.714 M100.334 12.771 C 100.334 12.851,100.727 13.128,101.209 13.387 C 101.690 13.645,101.933 13.737,101.750 13.592 C 101.567 13.446,101.285 13.217,101.125 13.082 C 100.965 12.947,100.833 12.883,100.833 12.939 C 100.833 12.995,100.721 12.947,100.583 12.833 C 100.446 12.719,100.333 12.691,100.334 12.771 M42.452 15.377 C 42.249 15.554,41.877 15.806,41.625 15.937 C 41.373 16.068,41.167 16.215,41.167 16.265 C 41.167 16.314,41.542 16.150,42.000 15.901 C 42.458 15.651,42.833 15.380,42.833 15.297 C 42.833 15.215,42.903 15.190,42.988 15.243 C 43.074 15.296,43.183 15.275,43.231 15.197 C 43.400 14.924,42.817 15.059,42.452 15.377 M104.425 15.315 C 104.677 15.551,106.500 16.541,106.500 16.442 C 106.500 16.393,106.125 16.142,105.667 15.885 C 105.209 15.627,104.834 15.360,104.834 15.292 C 104.833 15.223,104.706 15.167,104.550 15.167 C 104.377 15.167,104.328 15.224,104.425 15.315 M38.667 17.649 C 38.667 17.761,38.592 17.807,38.500 17.750 C 38.408 17.693,38.333 17.713,38.333 17.793 C 38.333 17.873,38.033 18.107,37.667 18.313 C 37.300 18.519,37.000 18.728,37.000 18.777 C 37.000 18.871,38.476 18.054,38.739 17.814 C 38.824 17.736,38.843 17.621,38.781 17.558 C 38.718 17.496,38.667 17.536,38.667 17.649 M108.833 17.809 C 108.833 17.957,110.183 18.833,110.411 18.833 C 110.467 18.833,110.416 18.728,110.298 18.600 C 110.180 18.472,110.052 18.397,110.015 18.433 C 109.977 18.469,109.696 18.307,109.390 18.074 C 109.084 17.841,108.833 17.721,108.833 17.809 M113.000 20.308 C 113.000 20.380,113.311 20.614,113.692 20.827 C 114.072 21.041,114.335 21.138,114.276 21.042 C 114.124 20.796,113.000 20.150,113.000 20.308 M33.500 20.750 C 33.189 20.979,32.983 21.167,33.041 21.167 C 33.184 21.167,34.333 20.485,34.333 20.400 C 34.333 20.235,34.020 20.366,33.500 20.750 M117.031 22.677 C 117.093 22.862,118.833 23.924,118.833 23.777 C 118.833 23.731,118.552 23.522,118.208 23.311 C 117.865 23.101,117.484 22.833,117.363 22.715 C 117.096 22.454,116.951 22.438,117.031 22.677 M29.290 23.229 C 28.408 23.771,28.291 23.940,29.083 23.527 C 29.939 23.081,30.294 22.838,30.083 22.841 C 29.992 22.843,29.635 23.017,29.290 23.229 M26.000 25.097 C 26.000 25.181,25.625 25.461,25.166 25.718 C 24.198 26.262,24.036 26.494,24.958 26.016 C 25.848 25.556,26.269 25.214,26.125 25.069 C 26.056 25.001,26.000 25.013,26.000 25.097 M121.190 25.142 C 121.229 25.265,121.746 25.625,122.339 25.942 C 122.932 26.258,123.273 26.419,123.098 26.300 C 122.923 26.181,122.654 25.971,122.501 25.833 C 122.348 25.696,122.116 25.559,121.986 25.529 C 121.856 25.498,121.608 25.348,121.434 25.195 C 121.217 25.004,121.140 24.987,121.190 25.142 M125.334 27.623 C 125.334 27.693,125.708 27.960,126.165 28.217 C 126.777 28.561,126.969 28.614,126.894 28.418 C 126.838 28.272,126.756 28.189,126.711 28.233 C 126.667 28.278,126.338 28.130,125.982 27.905 C 125.625 27.680,125.333 27.553,125.334 27.623 M21.370 27.926 C 21.167 28.069,20.998 28.125,20.995 28.051 C 20.992 27.977,20.913 28.049,20.818 28.212 C 20.724 28.374,20.576 28.464,20.490 28.410 C 20.404 28.357,20.333 28.393,20.333 28.490 C 20.333 28.766,20.526 28.704,21.333 28.167 C 21.746 27.892,22.006 27.668,21.912 27.667 C 21.818 27.667,21.574 27.783,21.370 27.926 M17.452 30.210 C 17.249 30.387,16.877 30.639,16.625 30.770 C 16.373 30.901,16.167 31.049,16.167 31.098 C 16.167 31.147,16.542 30.983,17.000 30.734 C 17.458 30.484,17.833 30.213,17.833 30.130 C 17.833 30.048,17.903 30.023,17.988 30.076 C 18.074 30.129,18.183 30.108,18.231 30.030 C 18.400 29.758,17.817 29.892,17.452 30.210 M129.425 30.148 C 129.662 30.370,131.500 31.378,131.500 31.285 C 131.500 31.242,131.045 30.934,130.488 30.603 C 129.506 30.018,129.101 29.845,129.425 30.148 M13.667 32.472 C 13.667 32.579,13.554 32.667,13.417 32.667 C 13.279 32.667,13.029 32.798,12.860 32.958 C 12.692 33.119,12.411 33.348,12.235 33.467 C 12.060 33.587,12.292 33.483,12.750 33.237 C 13.736 32.707,13.934 32.545,13.781 32.392 C 13.718 32.329,13.667 32.365,13.667 32.472 M133.833 32.663 C 133.833 32.809,135.327 33.737,135.405 33.640 C 135.431 33.609,135.087 33.345,134.642 33.054 C 134.197 32.763,133.833 32.587,133.833 32.663 M137.668 34.947 C 137.668 35.022,137.947 35.271,138.288 35.500 C 138.628 35.729,139.171 36.131,139.495 36.393 C 139.830 36.664,139.760 36.566,139.333 36.166 C 138.428 35.319,137.666 34.761,137.668 34.947 M8.587 35.663 C 8.423 35.844,8.212 35.945,8.119 35.887 C 8.022 35.827,7.999 35.864,8.066 35.973 C 8.166 36.134,9.167 35.600,9.167 35.385 C 9.167 35.224,8.844 35.378,8.587 35.663 M141.656 38.458 C 141.967 38.848,142.304 39.164,142.403 39.161 C 142.502 39.158,142.453 39.057,142.294 38.937 C 142.135 38.816,142.032 38.687,142.064 38.650 C 142.096 38.613,141.890 38.396,141.606 38.167 L 141.089 37.750 141.656 38.458 M5.915 38.169 C 5.857 38.263,5.722 38.288,5.613 38.226 C 5.505 38.164,5.473 38.175,5.542 38.251 C 5.611 38.327,5.537 38.546,5.378 38.736 C 5.219 38.927,5.331 38.863,5.628 38.594 C 5.924 38.325,6.167 38.081,6.167 38.052 C 6.167 37.938,6.014 38.010,5.915 38.169 M3.926 40.422 C 3.749 40.557,3.660 40.667,3.729 40.667 C 3.858 40.667,3.271 41.568,2.880 41.970 C 2.621 42.237,2.603 42.500,2.843 42.500 C 2.940 42.500,2.977 42.431,2.925 42.348 C 2.874 42.264,2.894 42.170,2.971 42.139 C 3.095 42.090,4.389 40.159,4.290 40.172 C 4.268 40.175,4.104 40.287,3.926 40.422 M143.976 41.650 C 144.402 42.374,144.814 42.926,144.893 42.878 C 144.971 42.831,144.967 42.745,144.883 42.688 C 144.798 42.630,144.449 42.116,144.105 41.545 C 143.762 40.975,143.418 40.469,143.341 40.422 C 143.265 40.374,143.550 40.927,143.976 41.650 M1.033 46.377 C 0.908 46.528,0.905 46.669,1.025 46.839 C 1.169 47.043,1.183 47.037,1.108 46.802 C 1.059 46.648,1.108 46.489,1.218 46.450 C 1.327 46.411,1.371 46.329,1.315 46.269 C 1.260 46.208,1.133 46.257,1.033 46.377 M137.295 46.454 C 137.594 46.491,138.044 46.490,138.295 46.452 C 138.545 46.414,138.300 46.384,137.750 46.385 C 137.200 46.386,136.995 46.417,137.295 46.454 M0.668 47.858 C 0.565 48.257,0.442 48.715,0.396 48.875 C 0.349 49.035,0.375 49.167,0.454 49.167 C 0.605 49.167,1.046 47.324,0.925 47.203 C 0.887 47.164,0.771 47.459,0.668 47.858 M146.608 48.333 C 146.665 48.654,146.781 48.992,146.867 49.083 C 146.965 49.188,146.980 49.064,146.906 48.750 C 146.726 47.986,146.489 47.653,146.608 48.333 M0.314 49.375 C 0.205 49.615,0.221 50.333,0.337 50.333 C 0.419 50.333,0.471 50.108,0.452 49.834 C 0.421 49.393,0.375 49.241,0.314 49.375 M146.845 49.615 C 146.839 49.816,146.908 50.027,147.000 50.083 C 147.197 50.205,147.197 50.042,147.000 49.583 C 146.862 49.262,146.856 49.263,146.845 49.615 M147.000 51.750 C 147.000 52.221,147.065 52.480,147.167 52.417 C 147.258 52.360,147.333 52.060,147.333 51.750 C 147.333 51.440,147.258 51.140,147.167 51.083 C 147.065 51.020,147.000 51.279,147.000 51.750 M0.248 84.250 C 0.248 102.217,0.268 109.542,0.292 100.528 C 0.315 91.515,0.315 76.815,0.292 67.862 C 0.268 58.909,0.248 66.283,0.248 84.250 M3.748 84.250 C 3.748 101.667,3.768 108.767,3.792 100.028 C 3.816 91.290,3.816 77.040,3.792 68.362 C 3.768 59.684,3.748 66.833,3.748 84.250 M71.915 125.000 C 71.915 142.646,71.934 149.865,71.958 141.042 C 71.982 132.219,71.982 117.781,71.958 108.958 C 71.934 100.135,71.915 107.354,71.915 125.000 M98.958 97.118 C 99.165 97.157,99.502 97.157,99.708 97.118 C 99.915 97.078,99.746 97.045,99.333 97.045 C 98.921 97.045,98.752 97.078,98.958 97.118 M97.125 103.454 C 97.423 103.491,97.910 103.491,98.208 103.454 C 98.506 103.417,98.263 103.387,97.667 103.387 C 97.071 103.387,96.827 103.417,97.125 103.454 M92.240 105.708 L 91.750 106.250 92.292 105.760 C 92.590 105.491,92.833 105.248,92.833 105.219 C 92.833 105.090,92.696 105.203,92.240 105.708 M95.625 112.451 C 95.831 112.491,96.169 112.491,96.375 112.451 C 96.581 112.411,96.412 112.379,96.000 112.379 C 95.587 112.379,95.419 112.411,95.625 112.451 M147.020 117.042 C 147.035 117.871,147.065 117.981,147.167 117.583 C 147.356 116.839,147.356 116.000,147.167 116.000 C 147.071 116.000,147.008 116.445,147.020 117.042 M146.845 118.792 C 146.855 119.198,146.873 119.212,147.000 118.917 C 147.196 118.461,147.196 118.333,147.000 118.333 C 146.908 118.333,146.839 118.540,146.845 118.792 M102.372 119.667 C 102.372 119.987,102.406 120.119,102.448 119.958 C 102.490 119.798,102.490 119.535,102.448 119.375 C 102.406 119.215,102.372 119.346,102.372 119.667 M0.576 120.208 C 1.011 121.996,1.211 122.677,1.283 122.606 C 1.388 122.501,0.605 119.338,0.473 119.335 C 0.413 119.334,0.459 119.727,0.576 120.208 M92.292 119.451 C 92.498 119.491,92.835 119.491,93.042 119.451 C 93.248 119.411,93.079 119.379,92.667 119.379 C 92.254 119.379,92.085 119.411,92.292 119.451 M146.667 119.736 C 146.667 119.958,146.624 120.277,146.571 120.445 C 146.495 120.687,146.507 120.698,146.632 120.500 C 146.890 120.088,147.023 119.333,146.837 119.333 C 146.743 119.333,146.667 119.515,146.667 119.736 M144.429 126.042 C 144.259 126.340,143.969 126.846,143.783 127.167 C 143.272 128.052,143.716 127.545,144.404 126.458 C 144.737 125.931,144.949 125.500,144.874 125.500 C 144.800 125.500,144.599 125.744,144.429 126.042 M2.792 126.096 C 2.702 126.186,4.112 128.333,4.261 128.333 C 4.373 128.333,3.123 126.421,2.971 126.361 C 2.894 126.330,2.874 126.236,2.925 126.152 C 3.030 125.983,2.943 125.946,2.792 126.096 M142.148 129.500 C 141.900 129.645,140.912 130.833,141.040 130.833 C 141.072 130.833,141.428 130.496,141.833 130.083 C 142.577 129.326,142.637 129.215,142.148 129.500 M5.375 129.899 C 5.535 130.020,5.667 130.218,5.667 130.338 C 5.667 130.458,5.711 130.512,5.764 130.458 C 5.919 130.303,6.494 130.874,6.381 131.071 C 6.326 131.170,6.343 131.193,6.419 131.123 C 6.496 131.054,6.752 131.165,6.988 131.370 C 7.224 131.575,6.969 131.275,6.422 130.705 C 5.875 130.134,5.350 129.669,5.255 129.672 C 5.161 129.675,5.215 129.777,5.375 129.899 M360.074 136.167 C 360.074 138.871,360.097 139.977,360.125 138.625 C 360.153 137.273,360.153 135.060,360.125 133.708 C 360.097 132.356,360.074 133.462,360.074 136.167 M139.756 131.827 C 139.593 132.006,139.057 132.431,138.563 132.771 C 137.691 133.372,137.421 133.745,138.178 133.303 C 138.609 133.051,140.301 131.508,140.151 131.503 C 140.096 131.501,139.919 131.647,139.756 131.827 M8.643 132.821 C 9.042 133.205,9.411 133.478,9.462 133.427 C 9.514 133.375,9.524 133.310,9.486 133.282 C 9.448 133.254,9.079 132.981,8.667 132.677 L 7.917 132.122 8.643 132.821 M12.808 135.430 C 13.296 135.759,13.730 135.993,13.772 135.950 C 13.854 135.868,12.249 134.833,12.041 134.833 C 11.975 134.833,12.320 135.102,12.808 135.430 M134.208 135.440 C 133.819 135.675,133.500 135.939,133.500 136.027 C 133.500 136.115,133.425 136.140,133.333 136.083 C 133.242 136.027,133.167 136.060,133.167 136.157 C 133.167 136.420,133.299 136.376,133.901 135.917 C 134.201 135.689,134.477 135.526,134.515 135.556 C 134.552 135.586,134.715 135.474,134.875 135.306 C 135.274 134.887,135.050 134.932,134.208 135.440 M91.497 136.216 L 91.577 137.083 91.633 136.352 C 91.663 135.950,91.627 135.560,91.552 135.485 C 91.478 135.411,91.453 135.740,91.497 136.216 M130.042 137.929 C 129.469 138.254,129.000 138.560,129.000 138.609 C 129.000 138.708,130.823 137.718,131.075 137.482 C 131.357 137.217,131.103 137.327,130.042 137.929 M16.500 137.569 C 16.500 137.618,16.718 137.771,16.984 137.909 C 17.251 138.046,17.583 138.274,17.724 138.414 C 17.864 138.554,18.019 138.604,18.068 138.525 C 18.117 138.446,17.784 138.178,17.328 137.930 C 16.873 137.682,16.500 137.519,16.500 137.569 M125.792 140.463 C 125.357 140.713,125.001 140.974,125.001 141.044 C 125.000 141.114,125.292 140.987,125.648 140.762 C 126.005 140.536,126.333 140.389,126.378 140.433 C 126.422 140.478,126.503 140.399,126.558 140.257 C 126.680 139.938,126.734 139.923,125.792 140.463 M21.000 140.226 C 21.000 140.354,22.176 141.046,22.257 140.965 C 22.297 140.925,22.030 140.724,21.665 140.519 C 21.299 140.313,21.000 140.182,21.000 140.226 M24.667 142.392 C 24.667 142.440,24.967 142.647,25.333 142.853 C 25.700 143.059,26.000 143.294,26.000 143.374 C 26.000 143.454,26.069 143.477,26.152 143.425 C 26.236 143.374,26.343 143.409,26.390 143.503 C 26.444 143.612,26.463 143.608,26.442 143.494 C 26.409 143.311,24.667 142.230,24.667 142.392 M121.700 142.867 C 121.398 143.054,121.190 143.246,121.238 143.294 C 121.286 143.342,121.440 143.286,121.579 143.170 C 121.719 143.054,121.836 143.025,121.838 143.105 C 121.841 143.185,121.921 143.117,122.015 142.955 C 122.110 142.792,122.258 142.703,122.344 142.756 C 122.430 142.810,122.500 142.774,122.500 142.677 C 122.500 142.434,122.340 142.472,121.700 142.867 M28.917 144.955 C 29.008 145.051,29.533 145.375,30.083 145.675 C 30.633 145.975,31.008 146.142,30.917 146.045 C 30.825 145.949,30.300 145.625,29.750 145.325 C 29.200 145.025,28.825 144.858,28.917 144.955 M117.542 145.351 C 117.060 145.631,116.668 145.948,116.669 146.055 C 116.671 146.186,116.712 146.192,116.794 146.075 C 116.862 145.979,117.273 145.695,117.708 145.443 C 118.144 145.192,118.500 144.952,118.500 144.910 C 118.500 144.794,118.482 144.803,117.542 145.351 M113.500 147.764 C 113.087 147.999,112.725 148.261,112.694 148.347 C 112.663 148.432,112.570 148.460,112.486 148.408 C 112.402 148.356,112.333 148.393,112.333 148.490 C 112.333 148.731,112.596 148.712,112.863 148.452 C 112.984 148.334,113.365 148.065,113.708 147.855 C 114.052 147.645,114.333 147.441,114.333 147.403 C 114.333 147.295,114.298 147.310,113.500 147.764 M33.333 147.559 C 33.333 147.687,34.510 148.379,34.590 148.299 C 34.630 148.259,34.364 148.058,33.998 147.852 C 33.632 147.647,33.333 147.515,33.333 147.559 M37.333 149.890 C 37.333 149.990,38.642 150.834,38.788 150.828 C 38.859 150.825,38.767 150.707,38.583 150.565 C 38.185 150.258,37.333 149.798,37.333 149.890 M109.208 150.273 C 108.819 150.508,108.500 150.772,108.500 150.860 C 108.500 150.948,108.425 150.973,108.333 150.917 C 108.242 150.860,108.167 150.893,108.167 150.990 C 108.167 151.255,108.238 151.223,109.270 150.500 C 110.334 149.755,110.297 149.617,109.208 150.273 M105.042 152.762 C 104.469 153.087,104.000 153.393,104.000 153.442 C 104.000 153.541,105.823 152.551,106.075 152.315 C 106.357 152.051,106.103 152.161,105.042 152.762 M41.500 152.390 C 41.500 152.439,41.800 152.647,42.167 152.853 C 42.533 153.059,42.833 153.294,42.833 153.374 C 42.833 153.454,42.902 153.477,42.986 153.425 C 43.070 153.374,43.176 153.409,43.223 153.503 C 43.270 153.598,43.291 153.586,43.270 153.477 C 43.233 153.282,41.500 152.218,41.500 152.390 M100.792 155.296 C 100.357 155.546,100.001 155.807,100.001 155.877 C 100.000 155.947,100.292 155.820,100.648 155.595 C 101.005 155.370,101.333 155.222,101.378 155.267 C 101.422 155.311,101.503 155.232,101.558 155.091 C 101.680 154.771,101.734 154.757,100.792 155.296 M46.000 155.059 C 46.000 155.187,47.176 155.879,47.257 155.799 C 47.297 155.759,47.030 155.558,46.665 155.352 C 46.299 155.147,46.000 155.015,46.000 155.059 M49.667 157.207 C 49.910 157.489,51.529 158.503,51.474 158.339 C 51.439 158.232,50.999 157.912,50.496 157.628 C 49.994 157.343,49.621 157.154,49.667 157.207 M96.542 157.803 C 96.152 158.047,95.833 158.308,95.833 158.384 C 95.833 158.460,96.048 158.370,96.310 158.183 C 96.573 157.996,96.817 157.866,96.852 157.894 C 96.888 157.922,97.048 157.807,97.208 157.639 C 97.608 157.220,97.384 157.275,96.542 157.803 M53.917 159.788 C 54.008 159.884,54.533 160.209,55.083 160.509 C 55.633 160.809,56.008 160.975,55.917 160.879 C 55.825 160.782,55.300 160.458,54.750 160.158 C 54.200 159.858,53.825 159.691,53.917 159.788 M92.542 160.184 C 92.060 160.465,91.667 160.760,91.667 160.841 C 91.667 160.922,92.023 160.754,92.458 160.468 C 93.865 159.542,93.911 159.386,92.542 160.184 M58.434 162.568 C 58.488 162.708,58.581 162.809,58.641 162.793 C 58.701 162.776,58.925 162.860,59.139 162.978 C 59.353 163.097,59.559 163.163,59.596 163.126 C 59.633 163.090,59.364 162.892,59.000 162.686 C 58.496 162.403,58.360 162.375,58.434 162.568 M88.333 162.687 C 88.013 162.881,87.725 163.107,87.694 163.188 C 87.663 163.269,87.570 163.293,87.486 163.241 C 87.402 163.189,87.333 163.226,87.333 163.323 C 87.333 163.589,87.573 163.537,87.983 163.181 C 88.185 163.006,88.516 162.747,88.717 162.607 C 89.260 162.228,89.005 162.281,88.333 162.687 M62.792 165.139 C 62.952 165.307,63.114 165.420,63.151 165.390 C 63.189 165.361,63.320 165.420,63.443 165.522 C 63.566 165.624,63.667 165.639,63.667 165.556 C 63.667 165.413,62.811 164.833,62.599 164.833 C 62.545 164.833,62.631 164.971,62.792 165.139 M84.125 165.178 C 83.453 165.533,83.322 165.682,83.792 165.559 C 84.065 165.487,85.014 164.836,84.833 164.844 C 84.787 164.846,84.469 164.997,84.125 165.178 M68.417 167.574 C 69.558 167.930,70.096 168.035,69.917 167.868 C 69.736 167.699,68.322 167.323,67.968 167.350 C 67.848 167.359,68.050 167.460,68.417 167.574 M78.542 167.451 C 78.335 167.491,78.167 167.583,78.167 167.655 C 78.167 167.826,78.976 167.673,79.096 167.480 C 79.146 167.399,79.126 167.344,79.052 167.356 C 78.977 167.369,78.748 167.411,78.542 167.451 M77.042 167.787 C 76.744 167.824,76.500 167.923,76.500 168.006 C 76.500 168.172,77.431 168.039,77.833 167.815 C 78.114 167.660,78.079 167.658,77.042 167.787 M70.417 167.971 C 70.956 168.208,72.333 168.346,72.333 168.163 C 72.333 168.074,72.080 168.000,71.771 168.000 C 71.461 168.000,70.955 167.960,70.646 167.912 C 70.235 167.848,70.173 167.864,70.417 167.971 M75.000 168.167 C 75.000 168.359,75.400 168.359,76.000 168.167 C 76.354 168.053,76.310 168.031,75.708 168.017 C 75.319 168.007,75.000 168.075,75.000 168.167 " stroke="none" fill="#637a6d" fill-rule="evenodd"></path></g></svg>